PathFileType	4	(X/Y/Z)	Walk10.trc
DataRate	CameraRate	NumFrames	NumMarkers	Units	OrigDataRate	OrigDataStartFrame	OrigNumFrames
200.000000	200.000000	9	59	mm	200.000000	550	589
Frame#	Times		CLAV		RASI		RACR1		RUA1		RFA1		RWRU		LACR1		LFA1		LCAR		RTH3		RTH2		LTH4		LLFC		LTB1		LTB3		STRN		LTB4		LASI		RElbow		RTH1		RLFC		LTH2		LTH3		LToe		LTH1		LWRR		RBack		C7		RCAR		LTB2		LMT1		RTH4		LFHD		RWRR		LMMAL		T10		LMT5		RFHD		LLMAL		RBHD		RPSI		LPSI		LUA1		RTB2		LBHD		RTB4		LElbow		RTB1		RMT1		RElbowM		RTB3		RToe		RCAL		LElbowM		LCAL		LWRU		RMMAL		RLMAL		RMT5
			X1	Y1	Z1	X2	Y2	Z2	X3	Y3	Z3	X4	Y4	Z4	X5	Y5	Z5	X6	Y6	Z6	X7	Y7	Z7	X8	Y8	Z8	X9	Y9	Z9	X10	Y10	Z10	X11	Y11	Z11	X12	Y12	Z12	X13	Y13	Z13	X14	Y14	Z14	X15	Y15	Z15	X16	Y16	Z16	X17	Y17	Z17	X18	Y18	Z18	X19	Y19	Z19	X20	Y20	Z20	X21	Y21	Z21	X22	Y22	Z22	X23	Y23	Z23	X24	Y24	Z24	X25	Y25	Z25	X26	Y26	Z26	X27	Y27	Z27	X28	Y28	Z28	X29	Y29	Z29	X30	Y30	Z30	X31	Y31	Z31	X32	Y32	Z32	X33	Y33	Z33	X34	Y34	Z34	X35	Y35	Z35	X36	Y36	Z36	X37	Y37	Z37	X38	Y38	Z38	X39	Y39	Z39	X40	Y40	Z40	X41	Y41	Z41	X42	Y42	Z42	X43	Y43	Z43	X44	Y44	Z44	X45	Y45	Z45	X46	Y46	Z46	X47	Y47	Z47	X48	Y48	Z48	X49	Y49	Z49	X50	Y50	Z50	X51	Y51	Z51	X52	Y52	Z52	X53	Y53	Z53	X54	Y54	Z54	X55	Y55	Z55	X56	Y56	Z56	X57	Y57	Z57	X58	Y58	Z58	X59	Y59	Z59

550	2.75	916.57	1355.1	-38.086	947.94	964.89	114.33	862.78	1366.5	135.9	821.36	1158	197.79	837.31	910.2	233.11	799.44	803.8	249.94	853.52	1369.2	-206.11	906.13	925.11	-269.58	942.9	770.09	-271.41	959.5	589.59	131.71	987.84	707.71	131.58	840.84	645.88	-161.67	841.88	450.25	-127.78	856.91	348.88	-47.518	804.94	168.54	-44.135	995.09	1131.5	-32.842	832.56	256.63	-49.575	938.62	949.75	-158.17	787.33	1055.2	219.95	889.62	763.13	164.43	983.13	502.06	116.97	914.22	653.64	-138.35	848.66	559.62	-142.65	936.56	29.347	-81.726	836.16	741.39	-182.8	934.02	811.29	-227.89	746.06	1326	61.639	789.07	1430.5	-34.498	842.52	759.23	248.4	809.5	262.38	-117.58	891.01	38.213	-52.483	925.48	676.12	147.95	958.42	1597.4	-60.631	853.64	803.98	198.72	763.16	74.874	-7.8646	759.95	1146	-28.21	849.16	20.849	-129.4	961.48	1598.6	12.385	743.93	63.197	-88.136	788.79	1558.6	40.076	731.88	989.3	49.345	727.9	986.34	-64.796	847.89	1160.6	-254.68	912.35	313.28	118.71	789.6	1567.8	-89.074	932.28	298.13	52.192	838.76	1040.6	-268.71	982.76	376.34	54.003	924.06	56.966	74.736	773.74	1034.3	136.55	882.99	220.46	50.186	949.59	41.715	112.23	744.32	130.09	37.653	809.43	1025.7	-205.31	695.01	31.597	-32.029	890.56	804.39	-284.44	826.98	148.06	19.75	790.71	146.39	92.939	865.15	54.446	133.13
551	2.755	921.78	1354.7	-38.034	953.47	964.8	113.9	868.15	1365.9	136.05	825.78	1157.6	197.79	840.26	909.56	233.16	801.44	803.49	250.12	858.55	1369.2	-205.94	914.22	925.82	-269.75	953.19	771.45	-271.11	965.97	590	131.59	993.87	708.22	131.65	844.52	645.38	-161.4	844.71	449.75	-127.49	859.03	348.25	-47.21	805.82	168.25	-43.902	1000.2	1131.2	-33.312	834.05	256.17	-49.29	943.69	949.2	-158.2	791.46	1054.8	219.77	895.46	763.21	164.7	989.97	502.17	116.96	917.96	652.75	-138.27	851.97	559.07	-142.4	936.66	29.323	-81.805	840.23	740.89	-182.61	943.8	812.62	-227.72	751.35	1325.6	61.787	794.32	1430.2	-34.216	844.05	758.45	248.59	811.13	262.04	-117.34	891.02	38.193	-52.494	931.62	676.36	148.06	963.92	1596.9	-60.329	855.57	803.09	198.9	763.43	74.746	-7.634	765.35	1145.6	-28.169	849.14	20.841	-129.39	967.01	1598.1	12.684	744.16	63.357	-87.999	794.28	1558.3	40.41	737.19	989.11	49.506	733	986.08	-64.603	853.76	1160.7	-255.01	923.67	311.28	118.36	795.05	1567.6	-88.731	943.99	296.68	51.879	845.39	1040.6	-269.26	992.25	376.22	53.805	942.66	55.775	74.849	777.88	1034	136.32	896.87	217.73	49.779	968.45	41.014	112.5	760.89	123.45	36.947	816.2	1025.3	-205.9	695.1	31.824	-31.828	900.34	804.89	-284.22	843.06	143.85	19.225	806.66	141.18	92.321	883.47	51.615	132.96
552	2.76	927.01	1354.3	-37.964	958.98	964.61	113.48	873.54	1365.3	136.21	830.24	1157.1	197.82	843.28	908.88	233.23	803.53	803.14	250.32	863.57	1369.1	-205.75	922.27	926.51	-269.93	963.44	772.83	-270.8	972.33	590.32	131.48	999.82	708.63	131.69	848.23	644.86	-161.12	847.58	449.21	-127.2	861.19	347.6	-46.897	806.72	167.94	-43.664	1005.3	1130.8	-33.759	835.58	255.69	-48.998	948.75	948.57	-158.2	795.65	1054.4	219.61	901.28	763.23	164.97	996.67	502.15	116.99	921.73	651.84	-138.17	855.33	558.49	-142.14	936.75	29.293	-81.895	844.33	740.35	-182.42	953.52	813.96	-227.54	756.66	1325.2	61.957	799.58	1429.8	-33.908	845.66	757.65	248.79	812.8	261.68	-117.09	891.04	38.17	-52.499	937.68	676.53	148.18	969.41	1596.4	-60.008	857.57	802.17	199.08	763.72	74.608	-7.3844	770.79	1145.2	-28.108	849.11	20.834	-129.36	972.54	1597.5	13.003	744.38	63.519	-87.858	799.76	1557.9	40.767	742.51	988.88	49.678	738.12	985.77	-64.4	859.6	1160.7	-255.32	935.01	309.22	118.04	800.5	1567.4	-88.363	955.68	295.21	51.581	852.01	1040.6	-269.78	1001.6	376.05	53.613	961.37	54.717	75.018	782.08	1033.7	136.12	910.82	215	49.396	987.41	40.461	112.84	777.74	116.81	36.259	822.98	1024.9	-206.46	695.19	32.065	-31.628	910.09	805.4	-284	859.34	139.66	18.729	822.8	135.98	91.731	901.94	48.895	132.83
553	2.765	932.24	1353.8	-37.877	964.46	964.32	113.08	878.94	1364.6	136.39	834.74	1156.5	197.88	846.37	908.17	233.32	805.71	802.75	250.53	868.6	1368.9	-205.55	930.29	927.17	-270.1	973.65	774.22	-270.48	978.57	590.55	131.38	1005.7	708.94	131.72	851.97	644.3	-160.84	850.49	448.64	-126.91	863.37	346.92	-46.579	807.64	167.61	-43.423	1010.4	1130.3	-34.18	837.13	255.18	-48.699	953.79	947.86	-158.16	799.89	1054	219.5	907.06	763.2	165.26	1003.2	502	117.05	925.53	650.91	-138.06	858.73	557.87	-141.87	936.84	29.255	-81.994	848.45	739.78	-182.23	963.19	815.31	-227.35	761.98	1324.6	62.149	804.84	1429.4	-33.577	847.37	756.83	248.99	814.49	261.29	-116.84	891.07	38.144	-52.498	943.68	676.63	148.31	974.89	1595.9	-59.667	859.64	801.23	199.26	764.01	74.466	-7.1181	776.28	1144.7	-28.027	849.09	20.828	-129.33	978.06	1596.9	13.341	744.62	63.682	-87.711	805.24	1557.5	41.149	747.85	988.6	49.861	743.24	985.42	-64.186	865.41	1160.7	-255.63	946.35	307.11	117.74	805.94	1567.1	-87.968	967.35	293.72	51.301	858.6	1040.5	-270.29	1010.9	375.82	53.428	980.19	53.814	75.234	786.33	1033.3	135.96	924.84	212.29	49.04	1006.5	40.078	113.22	794.86	110.21	35.593	829.77	1024.5	-206.98	695.29	32.318	-31.429	919.81	805.91	-283.76	875.79	135.54	18.267	839.15	130.8	91.175	920.56	46.307	132.74
554	2.77	937.49	1353.3	-37.771	969.92	963.93	112.72	884.35	1363.8	136.59	839.29	1156	197.95	849.53	907.42	233.44	807.98	802.33	250.76	873.63	1368.8	-205.33	938.27	927.82	-270.27	983.81	775.61	-270.15	984.7	590.68	131.3	1011.5	709.15	131.72	855.74	643.7	-160.55	853.45	448.04	-126.61	865.6	346.22	-46.259	808.57	167.25	-43.182	1015.6	1129.8	-34.573	838.7	254.66	-48.394	958.82	947.08	-158.11	804.19	1053.5	219.42	912.81	763.11	165.54	1009.6	501.71	117.15	929.37	649.95	-137.94	862.17	557.22	-141.6	936.93	29.208	-82.103	852.61	739.18	-182.02	972.81	816.65	-227.15	767.32	1324.1	62.363	810.12	1429	-33.221	849.18	755.98	249.19	816.22	260.89	-116.58	891.1	38.115	-52.489	949.6	676.66	148.46	980.36	1595.3	-59.307	861.79	800.27	199.46	764.31	74.327	-6.8387	781.81	1144.1	-27.926	849.08	20.825	-129.3	983.57	1596.3	13.699	744.86	63.847	-87.561	810.72	1557.1	41.556	753.21	988.28	50.056	748.38	985.03	-63.96	871.18	1160.6	-255.91	957.69	304.96	117.47	811.37	1566.7	-87.548	978.98	292.23	51.042	865.17	1040.3	-270.78	1020	375.54	53.254	999.1	53.088	75.485	790.64	1032.9	135.85	938.94	209.63	48.713	1025.6	39.886	113.64	812.24	103.68	34.953	836.55	1024	-207.48	695.39	32.583	-31.232	929.49	806.43	-283.5	892.41	131.49	17.842	855.69	125.69	90.656	939.33	43.878	132.7
555	2.775	942.75	1352.8	-37.645	975.37	963.45	112.38	889.76	1363	136.8	843.89	1155.3	198.05	852.77	906.64	233.59	810.36	801.87	251.02	878.67	1368.5	-205.09	946.22	928.45	-270.44	993.91	777.01	-269.82	990.71	590.73	131.23	1017.3	709.26	131.71	859.55	643.07	-160.26	856.45	447.4	-126.31	867.85	345.5	-45.936	809.53	166.88	-42.942	1020.8	1129.3	-34.936	840.3	254.12	-48.085	963.82	946.23	-158.03	808.55	1053	219.38	918.53	762.97	165.84	1015.9	501.29	117.28	933.23	648.96	-137.81	865.65	556.54	-141.33	937.03	29.152	-82.221	856.79	738.54	-181.81	982.38	818	-226.94	772.67	1323.5	62.597	815.41	1428.5	-32.841	851.09	755.1	249.4	817.98	260.46	-116.32	891.14	38.084	-52.474	955.45	676.61	148.62	985.83	1594.7	-58.928	864.02	799.29	199.67	764.62	74.197	-6.5511	787.37	1143.6	-27.804	849.07	20.824	-129.25	989.08	1595.6	14.077	745.11	64.015	-87.406	816.21	1556.6	41.987	758.58	987.91	50.264	753.53	984.59	-63.72	876.91	1160.5	-256.18	969.02	302.8	117.22	816.8	1566.4	-87.103	990.58	290.75	50.808	871.72	1040.1	-271.25	1029.1	375.22	53.091	1018.1	52.56	75.76	795	1032.4	135.77	953.09	207.02	48.42	1044.8	39.911	114.07	829.87	97.239	34.345	843.32	1023.5	-207.94	695.5	32.863	-31.039	939.13	806.95	-283.23	909.17	127.56	17.457	872.42	120.66	90.18	958.23	41.63	132.69
556	2.78	948.03	1352.2	-37.498	980.8	962.87	112.07	895.19	1362.2	137.04	848.55	1154.6	198.17	856.08	905.83	233.76	812.83	801.38	251.29	883.72	1368.2	-204.83	954.13	929.05	-270.6	1004	778.41	-269.47	996.6	590.68	131.17	1022.9	709.26	131.67	863.39	642.41	-159.96	859.49	446.74	-126.01	870.14	344.75	-45.613	810.49	166.48	-42.705	1026	1128.7	-35.267	841.91	253.56	-47.772	968.79	945.31	-157.94	812.96	1052.4	219.37	924.21	762.77	166.14	1021.9	500.75	117.43	937.12	647.95	-137.67	869.16	555.82	-141.06	937.12	29.085	-82.347	861.01	737.87	-181.58	991.88	819.35	-226.72	778.04	1322.8	62.851	820.71	1428	-32.44	853.1	754.2	249.62	819.76	260.02	-116.05	891.19	38.05	-52.451	961.23	676.48	148.8	991.28	1594.1	-58.528	866.33	798.3	199.89	764.92	74.084	-6.2607	792.95	1142.9	-27.663	849.07	20.827	-129.19	994.58	1594.9	14.475	745.37	64.185	-87.248	821.69	1556	42.443	763.98	987.49	50.484	758.69	984.12	-63.466	882.62	1160.4	-256.42	980.32	300.63	117.01	822.22	1565.9	-86.632	1002.1	289.29	50.602	878.26	1039.9	-271.69	1038	374.86	52.943	1037.1	52.25	76.047	799.42	1031.9	135.73	967.3	204.49	48.163	1064.1	40.174	114.5	847.75	90.923	33.777	850.07	1022.9	-208.38	695.6	33.157	-30.848	948.73	807.48	-282.94	926.06	123.76	17.116	889.32	115.75	89.751	977.26	39.589	132.7
557	2.785	953.33	1351.6	-37.329	986.23	962.2	111.8	900.63	1361.3	137.3	853.27	1153.9	198.31	859.48	904.99	233.96	815.41	800.86	251.59	888.78	1367.9	-204.55	962.01	929.64	-270.75	1014	779.82	-269.12	1002.4	590.53	131.14	1028.5	709.16	131.61	867.26	641.71	-159.66	862.57	446.05	-125.71	872.45	343.98	-45.292	811.47	166.06	-42.472	1031.3	1128.1	-35.563	843.54	252.98	-47.456	973.73	944.34	-157.85	817.43	1051.8	219.4	929.85	762.52	166.44	1027.8	500.08	117.59	941.04	646.92	-137.51	872.72	555.07	-140.78	937.22	29.006	-82.481	865.26	737.17	-181.34	1001.3	820.69	-226.49	783.43	1322.1	63.125	826.02	1427.4	-32.016	855.23	753.28	249.86	821.58	259.57	-115.78	891.25	38.014	-52.421	966.92	676.27	149	996.73	1593.4	-58.109	868.75	797.29	200.13	765.23	73.992	-5.9722	798.52	1142.2	-27.503	849.07	20.833	-129.13	1000.1	1594.1	14.894	745.63	64.359	-87.087	827.18	1555.5	42.924	769.39	987.04	50.718	763.86	983.59	-63.197	888.3	1160.2	-256.64	991.6	298.48	116.84	827.63	1565.5	-86.137	1013.6	287.86	50.428	884.78	1039.7	-272.1	1046.7	374.48	52.814	1056.2	52.176	76.332	803.91	1031.3	135.73	981.54	202.06	47.946	1083.3	40.699	114.91	865.84	84.756	33.258	856.8	1022.4	-208.8	695.7	33.469	-30.659	958.28	808.01	-282.64	943.06	120.12	16.822	906.37	110.96	89.373	996.4	37.777	132.75
558	2.79	958.65	1351	-37.138	991.65	961.44	111.57	906.08	1360.4	137.58	858.05	1153.2	198.47	862.95	904.13	234.18	818.11	800.31	251.92	893.86	1367.5	-204.25	969.86	930.2	-270.88	1023.9	781.22	-268.76	1008	590.29	131.13	1034	708.95	131.54	871.17	640.98	-159.36	865.68	445.32	-125.4	874.8	343.19	-44.974	812.46	165.63	-42.243	1036.6	1127.5	-35.823	845.18	252.38	-47.138	978.63	943.31	-157.75	821.95	1051.1	219.47	935.46	762.21	166.75	1033.5	499.29	117.78	944.99	645.87	-137.34	876.31	554.3	-140.5	937.32	28.918	-82.621	869.53	736.43	-181.1	1010.7	822.03	-226.26	788.83	1321.4	63.416	831.36	1426.7	-31.573	857.47	752.34	250.1	823.41	259.09	-115.51	891.31	37.976	-52.386	972.53	675.98	149.22	1002.2	1592.7	-57.669	871.27	796.27	200.38	765.54	73.927	-5.6893	804.07	1141.5	-27.325	849.08	20.843	-129.06	1005.6	1593.4	15.334	745.9	64.539	-86.922	832.66	1554.8	43.43	774.82	986.53	50.967	769.05	983.03	-62.912	893.97	1159.9	-256.84	1002.8	296.35	116.7	833.04	1564.9	-85.618	1025.1	286.49	50.287	891.29	1039.4	-272.48	1055.4	374.06	52.706	1075.3	52.354	76.606	808.46	1030.6	135.77	995.81	199.74	47.771	1102.6	41.506	115.29	884.12	78.765	32.795	863.51	1021.8	-209.19	695.81	33.801	-30.471	967.78	808.54	-282.32	960.14	116.67	16.577	923.55	106.34	89.05	1015.6	36.216	132.81
